<?xml version="1.0" encoding="utf-8"?>
<!-- Generator: Adobe Illustrator 15.0.2, SVG Export Plug-In . SVG Version: 6.00 Build 0)  -->
<!DOCTYPE svg PUBLIC "-//W3C//DTD SVG 1.1//EN" "http://www.w3.org/Graphics/SVG/1.1/DTD/svg11.dtd">
<svg version="1.1" id="Layer_1" xmlns="http://www.w3.org/2000/svg" xmlns:xlink="http://www.w3.org/1999/xlink" x="0px" y="0px"
	 width="535px" height="531px" viewBox="0 0 535 531" enable-background="new 0 0 535 531" xml:space="preserve">
<path fill="#FFFFFF" d="M268.502,1432.09c-157.095,0-309.972-30.974-454.385-92.061c-139-58.785-263.662-142.772-370.517-249.628
	c-106.846-106.846-190.835-231.51-249.636-370.528c-61.08-144.412-92.05-297.285-92.05-454.373
	c0-157.089,30.97-309.96,92.048-454.367c58.808-139.031,142.799-263.699,249.641-370.54
	C-449.561-666.243-324.9-750.229-185.88-809.032c144.412-61.083,297.288-92.054,454.38-92.054
	c157.096,0,309.969,30.97,454.373,92.049c139.03,58.807,263.696,142.798,370.535,249.641
	c106.844,106.843,190.834,231.511,249.636,370.538c61.077,144.403,92.047,297.271,92.047,454.357
	c0,157.081-30.97,309.948-92.048,454.357c-58.805,139.03-142.797,263.699-249.643,370.544
	c-106.845,106.846-231.512,190.836-370.537,249.64C578.446,1401.119,425.577,1432.089,268.502,1432.09L268.502,1432.09z
	 M268.502,1375.396c149.45-0.001,294.889-29.465,432.276-87.57c132.266-55.944,250.876-135.854,352.534-237.513
	c101.657-101.656,181.569-220.269,237.516-352.541c58.107-137.384,87.569-282.822,87.569-432.272
	c0-149.457-29.462-294.895-87.568-432.273c-55.943-132.269-135.854-250.879-237.51-352.535
	C951.668-620.963,833.059-700.875,700.788-756.822C563.41-814.93,417.968-844.393,268.5-844.393
	c-149.464,0-294.909,29.465-432.295,87.576c-132.263,55.944-250.865,135.85-352.514,237.5
	c-101.654,101.653-181.565,220.263-237.514,352.536c-58.107,137.381-87.57,282.821-87.57,432.282
	c0,149.459,29.463,294.902,87.572,432.288c55.942,132.262,135.852,250.868,237.509,352.525
	c101.667,101.667,220.272,181.574,352.515,237.502C-26.409,1345.931,119.038,1375.396,268.502,1375.396L268.502,1375.396z"/>
<path fill="#FFFFFF" d="M268.5,1318.704c-141.833,0-279.847-27.959-410.211-83.103c-125.488-53.071-238.036-128.899-334.514-225.376
	c-96.469-96.47-172.298-209.019-225.382-334.522C-756.744,545.343-784.7,407.331-784.7,265.5
	c0-141.833,27.956-279.843,83.091-410.197c53.091-125.516,128.922-238.068,225.388-334.533
	c96.461-96.461,209.007-172.288,334.512-225.374C-11.349-759.743,126.666-787.7,268.5-787.7
	c141.838,0,279.851,27.956,410.202,83.092c125.513,53.089,238.064,128.92,334.529,225.387
	c96.468,96.468,172.298,209.021,225.383,334.532c55.135,130.353,83.091,268.361,83.091,410.189
	c0,141.822-27.956,279.829-83.092,410.188c-53.089,125.517-128.921,238.07-225.389,334.537
	c-96.471,96.47-209.022,172.3-334.531,225.386C548.332,1290.746,410.323,1318.702,268.5,1318.704L268.5,1318.704z M268.5,1262.012
	c134.193-0.002,264.771-26.451,388.108-78.615c118.752-50.228,225.247-121.979,316.528-213.259
	c91.279-91.278,163.031-197.775,213.262-316.533c52.164-123.333,78.614-253.91,78.614-388.104
	c0-134.201-26.45-264.779-78.613-388.104c-50.227-118.753-121.977-225.249-213.257-316.529
	c-91.276-91.279-197.771-163.03-316.526-213.26C533.291-704.558,402.71-731.007,268.5-731.007
	c-134.206,0-264.79,26.451-388.124,78.618c-118.747,50.228-225.237,121.975-316.51,213.248
	c-91.277,91.275-163.028,197.771-213.261,316.529C-701.558,0.716-728.007,131.296-728.007,265.5
	c0,134.202,26.45,264.784,78.615,388.118c50.226,118.745,121.975,225.238,213.256,316.52
	c91.289,91.288,197.78,163.036,316.512,213.25C3.712,1235.559,134.296,1262.012,268.5,1262.012L268.5,1262.012z"/>
<path fill="#FFFFFF" d="M268.5,1205.318c-126.576,0-249.729-24.946-366.039-74.145c-111.976-47.356-212.411-115.025-298.51-201.124
	c-86.093-86.094-153.762-186.529-201.129-298.517c-49.193-116.308-74.136-239.459-74.136-366.033
	c0-126.576,24.942-249.725,74.134-366.028c47.375-112.001,115.046-212.439,201.134-298.525
	c86.084-86.085,186.517-153.752,298.507-201.123C18.77-649.371,141.922-674.314,268.5-674.314
	c126.579,0,249.73,24.942,366.03,74.135c111.996,47.371,212.435,115.042,298.524,201.133
	c86.092,86.092,153.762,186.531,201.13,298.526c49.191,116.299,74.135,239.447,74.135,366.021
	c0,126.567-24.943,249.714-74.136,366.021C1086.812,743.52,1019.14,843.96,933.049,930.05
	c-86.094,86.093-186.531,153.763-298.525,201.133C518.212,1180.375,395.064,1205.317,268.5,1205.318z M612.438,1078.968
	c105.237-44.512,199.618-108.103,280.522-189.006s144.495-175.286,189.008-280.525c46.221-109.281,69.657-224.998,69.657-343.937
	c0-118.946-23.437-234.664-69.656-343.936c-44.511-105.239-108.102-199.621-189.003-280.522
	c-80.901-80.902-175.282-144.494-280.521-189.007C503.17-594.186,387.45-617.622,268.5-617.622
	c-118.949,0-234.671,23.437-343.953,69.66c-105.233,44.512-199.609,108.101-280.506,188.998
	c-80.9,80.898-144.491,175.278-189.007,280.521c-46.22,109.277-69.656,224.997-69.656,343.943
	c0,118.945,23.436,234.666,69.658,343.948c44.51,105.231,108.1,199.609,189.003,280.514
	c80.91,80.91,175.288,144.499,280.508,188.998c109.283,46.227,225.005,69.665,343.953,69.665
	C387.436,1148.625,503.152,1125.189,612.438,1078.968z"/>
<path fill="#FFFFFF" d="M268.5,1091.932c-111.319,0-219.61-21.932-321.867-65.186c-98.464-41.642-186.785-101.15-262.506-176.872
	c-75.715-75.716-135.225-164.037-176.876-262.511C-536,485.107-557.929,376.816-557.929,265.5
	c0-111.318,21.929-219.607,65.177-321.859c41.657-98.483,101.167-186.806,176.88-262.517
	c75.709-75.709,164.028-135.218,262.504-176.872c102.256-43.251,210.547-65.181,321.867-65.181
	c111.321,0,219.61,21.929,321.86,65.178c98.48,41.655,186.805,101.166,262.518,176.88
	c75.715,75.714,135.225,164.038,176.877,262.519c43.248,102.246,65.178,210.533,65.178,321.852
	c0,111.311-21.93,219.598-65.179,321.853C988.1,685.834,928.588,774.159,852.873,849.874
	c-75.716,75.715-164.04,135.226-262.52,176.88C488.094,1070.003,379.808,1091.932,268.5,1091.932z M568.269,974.54
	c91.721-38.796,173.988-94.227,244.517-164.754c70.527-70.527,125.958-152.795,164.754-244.518
	c40.277-95.229,60.7-196.086,60.7-299.769c0-103.691-20.423-204.548-60.699-299.768c-38.794-91.722-94.224-173.989-164.75-244.515
	c-70.525-70.526-152.792-125.958-244.515-164.754c-95.224-40.277-196.082-60.699-299.775-60.699
	c-103.691,0-204.551,20.423-299.781,60.702c-91.718,38.796-173.981,94.225-244.503,164.747
	c-70.525,70.523-125.956,152.79-164.753,244.514c-40.277,95.226-60.699,196.084-60.699,299.774
	c0,103.687,20.422,204.547,60.701,299.778c38.793,91.716,94.224,173.98,164.75,244.508
	c70.532,70.532,152.797,125.962,244.504,164.746c95.229,40.281,196.09,60.706,299.781,60.706
	C372.18,1035.238,473.036,1014.816,568.269,974.54z"/>
<path fill="#FFFFFF" d="M268.5,978.545c-96.06,0-189.49-18.917-277.694-56.227c-84.953-35.928-161.16-87.277-226.503-152.62
	c-65.338-65.339-116.688-141.546-152.624-226.505c-37.306-88.205-56.222-181.634-56.222-277.693
	c0-96.062,18.916-189.49,56.221-277.689c35.938-84.965,87.289-161.174,152.626-226.51c65.333-65.333,141.54-116.683,226.501-152.621
	c88.203-37.307,181.633-56.223,277.695-56.223c96.064,0,189.493,18.916,277.69,56.221c84.965,35.938,161.175,87.29,226.512,152.627
	c65.336,65.336,116.687,141.546,152.623,226.512c37.306,88.196,56.221,181.623,56.221,277.683
	c0,96.053-18.915,189.479-56.222,277.685c-35.938,84.966-87.289,161.176-152.627,226.514
	c-65.341,65.34-141.551,116.69-226.514,152.627C457.979,959.63,364.553,978.545,268.5,978.545z M524.099,870.11
	c78.204-33.077,148.358-80.349,208.511-140.5c60.15-60.15,107.421-130.303,140.5-208.51c34.335-81.18,51.744-167.176,51.744-255.601
	c0-88.432-17.409-174.428-51.743-255.599c-33.078-78.208-80.349-148.361-140.497-208.509c-60.147-60.149-130.3-107.42-208.509-140.5
	C442.934-373.441,356.936-390.85,268.5-390.85c-88.433,0-174.432,17.409-255.609,51.744c-78.205,33.08-148.354,80.349-208.5,140.495
	c-60.149,60.148-107.42,130.3-140.5,208.507c-34.333,81.173-51.742,167.17-51.742,255.604c0,88.431,17.409,174.43,51.743,255.607
	c33.079,78.203,80.35,148.354,140.498,208.503c60.152,60.152,130.303,107.423,208.501,140.494
	c81.177,34.337,167.176,51.748,255.608,51.748C356.927,921.853,442.922,904.443,524.099,870.11z"/>
<path fill="#FFFFFF" d="M268.5,865.159c-80.803,0-159.372-15.903-233.522-47.269c-71.44-30.214-135.534-73.403-190.499-128.368
	c-54.962-54.962-98.152-119.056-128.373-190.501c-31.362-74.151-47.264-152.719-47.264-233.521
	c0-80.805,15.902-159.372,47.264-233.519c30.221-71.448,73.411-135.542,128.373-190.504
	c54.958-54.958,119.051-98.148,190.498-128.369c74.151-31.363,152.719-47.265,233.523-47.265c80.807,0,159.374,15.902,233.52,47.264
	c71.449,30.221,135.545,73.412,190.505,128.374c54.961,54.96,98.151,119.055,128.371,190.505
	C852.258,106.13,868.16,184.697,868.16,265.5c0,80.796-15.902,159.362-47.266,233.517c-30.22,71.448-73.41,135.542-128.373,190.505
	c-54.965,54.964-119.061,98.154-190.508,128.373C427.865,849.257,349.3,865.159,268.5,865.159z M479.93,765.681
	c64.689-27.36,122.729-66.472,172.504-116.246c49.775-49.775,88.886-107.813,116.246-172.501
	c28.391-67.127,42.787-138.264,42.787-211.434c0-73.174-14.396-144.31-42.786-211.431C741.319-10.622,702.209-68.66,652.436-118.433
	c-49.772-49.773-107.811-88.884-172.501-116.247c-67.12-28.39-138.257-42.785-211.435-42.785
	c-73.175,0-144.312,14.395-211.437,42.786c-64.69,27.363-122.726,66.473-172.496,116.243
	c-49.773,49.773-88.884,107.811-116.247,172.501c-28.39,67.121-42.785,138.258-42.785,211.434
	c0,73.174,14.395,144.312,42.785,211.436c27.362,64.69,66.474,122.726,116.246,172.499
	c49.777,49.777,107.814,88.887,172.497,116.242c67.125,28.393,138.262,42.789,211.437,42.789
	C341.672,808.466,412.808,794.07,479.93,765.681z"/>
<path fill="#FFFFFF" d="M268.5,751.772c-65.547,0-129.253-12.89-189.351-38.31C21.223,688.965-30.757,653.935-75.345,609.347
	c-44.585-44.585-79.616-96.565-104.12-154.496c-25.418-60.098-38.307-123.804-38.307-189.351
	c0-65.547,12.888-129.254,38.307-189.349c24.504-57.933,59.536-109.914,104.12-154.498c44.582-44.582,96.561-79.612,154.494-104.117
	c60.098-25.419,123.804-38.307,189.351-38.307c65.549,0,129.255,12.888,189.35,38.307c57.933,24.504,109.913,59.535,154.498,104.12
	c44.585,44.584,79.615,96.565,104.118,154.499c25.419,60.095,38.308,123.801,38.308,189.346c0,65.543-12.89,129.25-38.309,189.35
	c-24.502,57.931-59.533,109.911-104.119,154.497c-44.588,44.587-96.569,79.617-154.5,104.119
	C397.75,738.884,334.045,751.772,268.5,751.772z M435.762,661.251c51.173-21.644,97.097-52.594,136.496-91.992
	c39.397-39.397,70.349-85.321,91.992-136.494c22.447-53.072,33.83-109.349,33.83-167.265s-11.382-114.192-33.829-167.262
	C642.606,47.063,611.656,1.14,572.26-38.257c-39.396-39.397-85.32-70.348-136.496-91.994
	c-53.068-22.447-109.344-33.828-167.264-33.828c-57.919,0-114.194,11.381-167.265,33.828C50.06-108.604,4.137-77.653-35.257-38.259
	C-74.653,1.137-105.604,47.061-127.25,98.236c-22.447,53.069-33.828,109.345-33.828,167.264c0,57.918,11.381,114.194,33.828,167.265
	c21.645,51.173,52.596,97.096,91.993,136.494c39.399,39.399,85.323,70.35,136.493,91.99c53.071,22.448,109.348,33.83,167.265,33.83
	S382.692,683.697,435.762,661.251z"/>
<path fill="#FFFFFF" d="M268.5,638.387c-50.29,0-99.135-9.876-145.179-29.352C78.906,590.251,39.04,563.38,4.83,529.171
	c-34.208-34.208-61.079-74.075-79.866-118.491c-19.475-46.044-29.35-94.89-29.35-145.18s9.875-99.135,29.35-145.179
	C-56.249,75.903-29.377,36.037,4.831,1.83c34.207-34.207,74.073-61.078,118.49-79.866c46.044-19.475,94.89-29.35,145.18-29.35
	s99.136,9.875,145.179,29.35c44.419,18.788,84.285,45.659,118.492,79.867c34.208,34.208,61.079,74.075,79.865,118.492
	c19.475,46.042,29.351,94.888,29.351,145.178c0,50.29-9.876,99.135-29.352,145.18c-18.785,44.415-45.655,84.281-79.865,118.491
	c-34.211,34.21-74.077,61.08-118.492,79.865C367.636,628.511,318.79,638.387,268.5,638.387z M391.594,556.821
	c37.659-15.928,71.468-38.719,100.488-67.739c29.021-29.021,51.812-62.83,67.739-100.488
	c16.504-39.019,24.872-80.433,24.872-123.094c0-42.661-8.368-84.076-24.872-123.094c-15.928-37.659-38.719-71.468-67.739-100.488
	c-29.02-29.021-62.829-51.811-100.488-67.74C352.576-42.325,311.161-50.693,268.5-50.693s-84.076,8.368-123.094,24.871
	C107.747-9.893,73.938,12.897,44.918,41.918c-29.021,29.02-51.811,62.829-67.74,100.488
	c-16.503,39.019-24.871,80.434-24.871,123.094c0,42.661,8.368,84.076,24.871,123.094c15.929,37.659,38.719,71.468,67.74,100.488
	c29.02,29.02,62.829,51.811,100.488,67.739c39.018,16.504,80.433,24.872,123.094,24.872S352.576,573.325,391.594,556.821z"/>
<path fill="#FFFFFF" d="M528,265.5C528,408.818,411.818,525,268.5,525C125.182,525,9,408.818,9,265.5C9,122.182,125.182,6,268.5,6
	C411.818,6,528,122.182,528,265.5z M471.307,265.5c0-111.828-90.979-202.807-202.807-202.807S65.693,153.672,65.693,265.5
	S156.672,468.307,268.5,468.307S471.307,377.328,471.307,265.5z"/>
<path fill="#FFFFFF" d="M268.5,411.614c-80.568,0-146.114-65.547-146.114-146.114c0-80.568,65.546-146.114,146.114-146.114
	c80.567,0,146.114,65.546,146.114,146.114C414.614,346.067,349.067,411.614,268.5,411.614z M357.921,265.5
	c0-49.307-40.114-89.421-89.421-89.421s-89.421,40.114-89.421,89.421s40.115,89.421,89.421,89.421S357.921,314.807,357.921,265.5z"
	/>
<path fill="#FFFFFF" d="M268.5,298.228c-18.047,0-32.729-14.682-32.729-32.728s14.682-32.729,32.729-32.729
	c18.046,0,32.728,14.682,32.728,32.729S286.546,298.228,268.5,298.228z"/>
</svg>
